<svg xmlns="http://www.w3.org/2000/svg" aria-hidden="true" style="position:absolute;width:0;height:0;overflow:hidden"><defs><symbol id="icon-basket" viewBox="0 0 38 32"><path fill="none" stroke="#000" stroke-width="4.571" d="M9.143 9.143h25.905L32 21.333H13.714L7.619 3.047H0" style="stroke:var(--color1, #000)"/><path d="M19.81 28.952a3.048 3.048 0 1 1-6.096 0 3.048 3.048 0 0 1 6.096 0zM32 28.952a3.048 3.048 0 1 1-6.096 0 3.048 3.048 0 0 1 6.096 0z"/></symbol><symbol id="icon-Delivery" viewBox="0 0 41 32"><path fill="none" stroke="#000" stroke-width="3.556" d="M14.222 25.778a4.444 4.444 0 1 1-8.888 0 4.444 4.444 0 0 1 8.888 0zM32 25.778a4.444 4.444 0 1 1-8.888 0 4.444 4.444 0 0 1 8.888 0zM3.556 1.778h23.111v16H3.556v-16z" style="stroke:var(--color1, #000)"/><path fill="none" stroke="#000" stroke-width="3.556" d="M26.667 7.111h12.444v14.222H26.667V7.111z" style="stroke:var(--color1, #000)"/><path d="M12.444 21.333h12.444v3.556H12.444v-3.556zM0 21.333h7.111v3.556H0v-3.556z"/></symbol><symbol id="icon-Group-8" viewBox="0 0 70 32"><path d="M.631 20.279v-2.22l6.72-9.041h3.462l-6.577 9.041-1.609-.468h11.22v2.688H.631zm7.677 2.994V20.28l.102-2.688v-2.668h3.116v8.349H8.309zm7.046 3.136 1.344-4.887.448 1.833c-.584 0-1.066-.17-1.446-.509-.367-.339-.55-.808-.55-1.405s.19-1.072.57-1.425c.38-.353.848-.529 1.405-.529.57 0 1.039.183 1.405.55.367.353.55.821.55 1.405 0 .176-.014.353-.041.529a4.088 4.088 0 0 1-.163.611 7.644 7.644 0 0 1-.346.896l-1.161 2.932h-2.016zm7.15-3.136 5.743-12.992.855 1.425h-7.677l1.466-1.548v3.869h-2.932V9.018h11.424v2.138l-5.295 12.116h-3.584z"/><path fill="none" stroke="#000" stroke-width="2.909" d="m54.495 22.713-.677-.356-7.473 3.929 1.427-8.321-6.046-5.893 8.355-1.214 3.736-7.571 3.736 7.571 8.355 1.214-6.046 5.893.129.754 1.298 7.567-6.796-3.573z" style="stroke:var(--color1, #000)"/></symbol><symbol id="icon-Logo" viewBox="0 0 91 32"><path d="M10.001 31.987c-2.701-.106-4.912-.838-6.64-2.198-.33-.26-1.116-1.038-1.379-1.367C1.281 27.549.805 26.7.487 25.758c-.978-2.901-.475-6.707 1.44-10.885 1.639-3.576 4.168-7.123 8.58-12.036C11.157 2.114 13.092 0 13.105 0c.005 0-.101.181-.234.401-1.147 1.903-2.129 4.144-2.664 6.085-.859 3.114-.755 5.786.303 7.858.73 1.427 1.983 2.664 3.391 3.347 2.465 1.196 6.074 1.295 10.482.29.303-.07 15.34-4.023 33.415-8.785S90.664.54 90.666.543c.005.004-41.993 17.801-63.796 27.034-3.453 1.462-4.376 1.831-5.999 2.395-4.149 1.443-7.866 2.132-10.871 2.013z"/></symbol><symbol id="icon-Search" viewBox="0 0 30 32"><path stroke-width="3.368" d="M28.632 15.158c0 7.441-6.032 13.474-13.474 13.474S1.684 22.6 1.684 15.158c0-7.441 6.032-13.474 13.474-13.474s13.474 6.032 13.474 13.474zM23.579 23.579l6.737 6.737"/></symbol><symbol id="icon-Info" viewBox="0 0 32 32"><path fill="none" stroke="#000" stroke-width="2.909" d="M30.545 16c0 8.033-6.512 14.545-14.545 14.545S1.455 24.033 1.455 16C1.455 7.967 7.967 1.455 16 1.455S30.545 7.967 30.545 16z" style="stroke:var(--color1, #000)"/><path d="M17.455 8.727h-2.909v2.909h2.909V8.727zm0 5.818h-2.909v8.727h2.909v-8.727z"/></symbol></defs></svg>